<?xml version="1.0" encoding="UTF-8"?>
<svg width="92px" height="55px" viewBox="0 0 92 55" version="1.1" xmlns="http://www.w3.org/2000/svg" xmlns:xlink="http://www.w3.org/1999/xlink">
    <title>logo</title>
    <g id="logo" stroke="none" stroke-width="1" fill="none" fill-rule="evenodd">
        <g id="Group" fill="#38BDF8">
            <path d="M46.0009014,0 C33.7331531,0 26.0678385,6.11151268 22.9995493,18.334538 C27.6001803,12.2230254 32.9669821,9.93165988 39.0999549,11.4586345 C42.5991025,12.3296425 45.1013266,14.8595413 47.8685556,17.6605007 C52.3790489,22.2215469 57.5998276,27.5 69.0004507,27.5 C81.2663963,27.5 88.9335136,21.3884873 92,9.16726902 C87.4011718,15.2787817 82.0343699,17.5701472 75.9013971,16.0413655 C72.4004468,15.1703575 69.8982227,12.6404587 67.1309937,9.84130635 C62.6205005,5.27664608 57.4015245,0 46.0009014,0 Z M22.9995493,27.5 C10.7336037,27.5 3.06648639,33.6115127 0,45.834538 C4.60063096,39.7230254 9.96743284,37.4316599 16.0986029,38.9586345 C19.5995532,39.8296425 22.1017773,42.3595413 24.8690063,45.1605007 C29.3794995,49.7215469 34.5984755,55 46.0009014,55 C58.2668469,55 65.9339643,48.8902944 69.0004507,36.667269 C64.3998197,42.7787817 59.0330179,45.0701472 52.9000451,43.5431726 C49.4008975,42.6703575 46.8986734,40.1404587 44.1314444,37.3413063 C39.6209511,32.7802602 34.4001724,27.5 22.9995493,27.5 Z" id="Shape"></path>
        </g>
    </g>
</svg>